<svg viewBox="0 0 120 120" xmlns="http://www.w3.org/2000/svg">
    <defs>
        <linearGradient id="g2" x1="0" y1="0" x2="1" y2="1">
            <stop offset="0%" stop-color="#F59E0B"/>
            <stop offset="100%" stop-color="#B45309"/>
        </linearGradient>
    </defs>
    <rect width="120" height="120" rx="24" fill="url(#g2)"/>
    <path d="M60 75 C60 55 40 45 35 55 C30 65 45 75 60 75Z" fill="none" stroke="white" stroke-width="2" opacity="0.85"/>
    <path d="M60 75 C60 55 80 45 85 55 C90 65 75 75 60 75Z" fill="none" stroke="white" stroke-width="2" opacity="0.85"/>
    <path d="M60 75 C60 50 45 35 50 30 C55 25 60 40 60 75Z" fill="none" stroke="white" stroke-width="2" opacity="0.7"/>
    <path d="M60 75 C60 50 75 35 70 30 C65 25 60 40 60 75Z" fill="none" stroke="white" stroke-width="2" opacity="0.7"/>
    <path d="M60 75 C55 45 35 30 45 25" fill="none" stroke="white" stroke-width="1.5" stroke-linecap="round" opacity="0.45"/>
    <path d="M60 75 C65 45 85 30 75 25" fill="none" stroke="white" stroke-width="1.5" stroke-linecap="round" opacity="0.45"/>
</svg>